<svg xmlns="http://www.w3.org/2000/svg" width="457.636" height="579.902" viewBox="0 0 457.636 579.902">
  <g id="face" transform="translate(-146.447 -2720.49)">
    <g id="Group_540" data-name="Group 540" transform="translate(-1288.042 1660.551)">
      <g id="Group_564" data-name="Group 564" transform="translate(1465.042 1127.949)">
        <g id="Group_559" data-name="Group 559">
          <path id="Path_566" data-name="Path 566" d="M1540.633,1345.511s16.909-2.747,30.96-9.937c5.8-2.969,21.424-8.337,30.921,3.254,6.953,8.486,15.8,19.9,25.86,29.861,4.176,4.134,5.54,10.429,5.54,10.429s-13.266-2.482-37.457-10.437S1540.633,1345.511,1540.633,1345.511Z" transform="translate(-1497.851 -1291.43)" fill="#23252b"/>
          <g id="Group_541" data-name="Group 541" transform="translate(101.995)">
            <g id="Group_540-2" data-name="Group 540" transform="translate(0 18.711)">
              <path id="Path_567" data-name="Path 567" d="M1670.657,1364.974a8.264,8.264,0,0,0,9.359-4.976l5.909-14.546a3.529,3.529,0,0,1,3.535-2.153l8.752.7a4.168,4.168,0,0,0,4.245-2.722l4.308-11.767a.062.062,0,0,1,.041-.038l4.5-1.4a1.723,1.723,0,0,0,1.143-2.122l-2.652-9.2c-.516-1.791.133-11.2-1.712-11.471,0,0-28.72-16.716-40.272-5.729a12.253,12.253,0,0,0-3.316,11.448l1.114,5.226a23.688,23.688,0,0,1-2.714,17.249,23.948,23.948,0,0,1-2.922,3.862l-11.315,11.806a4.268,4.268,0,0,0,1,6.687C1655.236,1358.914,1664.473,1363.671,1670.657,1364.974Z" transform="translate(-1646.216 -1294.556)" fill="#fff"/>
              <path id="Path_568" data-name="Path 568" d="M1671.412,1365.444a9.537,9.537,0,0,1-1.971-.206c-6.137-1.294-14.995-5.76-21.344-9.279a5.518,5.518,0,0,1-1.3-8.646l11.315-11.8a22.718,22.718,0,0,0,2.757-3.648,22.317,22.317,0,0,0,2.558-16.338l-1.114-5.225a13.55,13.55,0,0,1,3.675-12.614c11.754-11.175,38.971,3.955,41.6,5.459,1.892.556,2.086,3.784,2.235,8.881a25.469,25.469,0,0,0,.216,3.417l2.651,9.2a2.99,2.99,0,0,1-1.971,3.661l-3.937,1.229-4.106,11.217a5.461,5.461,0,0,1-5.518,3.539l-8.753-.7a2.27,2.27,0,0,0-2.284,1.391l-5.9,14.532A9.507,9.507,0,0,1,1671.412,1365.444Zm6.467-69.364c-3.967,0-7.565.938-10.167,3.413a11.036,11.036,0,0,0-2.954,10.282l1.113,5.224A24.8,24.8,0,0,1,1663,1333.16a25.337,25.337,0,0,1-3.076,4.064l-11.328,11.819a3.018,3.018,0,0,0,.707,4.729c5.077,2.814,14.508,7.727,20.649,9.021a7,7,0,0,0,7.943-4.223l5.909-14.546a4.8,4.8,0,0,1,4.794-2.929l8.752.7a2.921,2.921,0,0,0,2.972-1.906l4.307-11.767a1.375,1.375,0,0,1,.819-.794l4.519-1.411a.471.471,0,0,0,.313-.583l-2.65-9.2a20.309,20.309,0,0,1-.312-4.037c-.055-1.876-.168-5.7-.675-6.624a1.268,1.268,0,0,1-.153-.076C1706.282,1305.274,1690.286,1296.081,1677.878,1296.081Z" transform="translate(-1645.257 -1293.598)" fill="#23252b"/>
            </g>
            <path id="Path_569" data-name="Path 569" d="M1686.611,1300.183c-.662-5.174-3.317-7.325-2.329-9.678a4.811,4.811,0,0,1,2.629-2.255c3.762-1.741,7.812.561,16.2,3.9,10.409,4.142,11.58,4.7,13.776,4.3,5.582-1.031,9.771-6.819,11.02-12.005.35-1.456,2-9.225-3.846-14.54-4.222-3.838-10.675-4.87-16.483-2.663a7.613,7.613,0,0,0-2.536-5.368c-4.4-3.441-12.766.718-15.7,2.174a32.275,32.275,0,0,0-11.946,10.337c-.856-.724-4.1-3.294-8.275-2.808-6.21.722-9.038,7.568-9.3,8.219-3,7.588,2.148,15.726,6.034,21.872a31.188,31.188,0,0,0,6.07,7.427l1.482-.476a2.978,2.978,0,0,0,1.874-3.891l-.041-.11a12.152,12.152,0,0,1-.8-5.3c.119-1.435.518-2.889,1.572-3.471,1.7-.938,4.028.354,4.362.54a7.087,7.087,0,0,1,3.3,4.945C1683.9,1302.4,1686.83,1301.892,1686.611,1300.183Z" transform="translate(-1651.191 -1260.538)" fill="#23252b"/>
          </g>
          <g id="Group_552" data-name="Group 552" transform="translate(15.417 234.582)">
            <g id="Group_546" data-name="Group 546" transform="translate(161.625 185.835)">
              <g id="Group_542" data-name="Group 542" transform="translate(10.77)">
                <path id="Path_570" data-name="Path 570" d="M1808.728,2005.579l-9.634,31.409c8.595,12.723,16.615,15.934,23.485.1l13.98-25.694Z" transform="translate(-1797.845 -2004.33)" fill="#fff"/>
                <path id="Path_571" data-name="Path 571" d="M1811.2,2048.073c-4.329,0-8.949-3.721-14.1-11.345a1.247,1.247,0,0,1-.158-1.065l9.633-31.408a1.255,1.255,0,0,1,1.45-.857l27.83,5.812a1.248,1.248,0,0,1,.843,1.82l-13.979,25.695c-3.117,7.2-6.674,10.932-10.827,11.316C1811.662,2048.063,1811.43,2048.073,1811.2,2048.073Zm-11.692-12.251c4.661,6.772,8.751,10.038,12.155,9.731,3.117-.289,6.082-3.627,8.813-9.922l13.224-24.317-25.069-5.236Z" transform="translate(-1796.887 -2003.372)" fill="#23252b"/>
              </g>
              <g id="Group_545" data-name="Group 545" transform="translate(0 27.163)">
                <g id="Group_543" data-name="Group 543">
                  <path id="Path_572" data-name="Path 572" d="M1786.012,2055.318a170.6,170.6,0,0,0-5.747,19.676,9.158,9.158,0,0,0,6.267,10.6c6.1,1.949,24.173,6.03,35.922,8.614a42.53,42.53,0,0,0,21.013-.718l9.714-2.828a30.046,30.046,0,0,0,8.741-4.1c2.646-1.834,5.14-4.2,4.536-6.331-1.6-5.632-8.411-7.247-14-7.59a42.522,42.522,0,0,1-17.9-5.3c-5.737-3.167-12.754-7.108-17.8-10.169a3.073,3.073,0,0,0-3.263.059l-3.562,2.309a10.666,10.666,0,0,1-11.67-.019l-8.324-5.513A2.634,2.634,0,0,0,1786.012,2055.318Z" transform="translate(-1778.816 -2052.324)" fill="#fff"/>
                  <path id="Path_573" data-name="Path 573" d="M1830.572,2095.48a43.52,43.52,0,0,1-9.345-1.012c-13.149-2.891-30.075-6.737-36.035-8.643a10.4,10.4,0,0,1-7.108-12.049,172.6,172.6,0,0,1,5.791-19.832,3.887,3.887,0,0,1,5.8-1.937l8.323,5.514a9.39,9.39,0,0,0,10.3.012l3.562-2.309a4.341,4.341,0,0,1,4.591-.08c5.185,3.146,12.519,7.254,17.756,10.146a41.556,41.556,0,0,0,17.377,5.149c8.462.521,13.691,3.458,15.121,8.494.664,2.337-1.026,4.928-5.025,7.7a31.25,31.25,0,0,1-9.1,4.268l-9.714,2.829A43.973,43.973,0,0,1,1830.572,2095.48Zm-43.035-41.616a1.383,1.383,0,0,0-.448.075,1.355,1.355,0,0,0-.858.837,169.678,169.678,0,0,0-5.7,19.52,7.9,7.9,0,0,0,5.424,9.149c6.177,1.975,25.089,6.225,35.81,8.583a41.437,41.437,0,0,0,20.4-.7l9.714-2.829a28.763,28.763,0,0,0,8.379-3.923c2.853-1.978,4.365-3.833,4.044-4.962-1.408-4.956-7.776-6.37-12.871-6.684a44.036,44.036,0,0,1-18.431-5.456c-5.259-2.9-12.623-7.028-17.844-10.2a1.831,1.831,0,0,0-1.936.039l-3.562,2.309a11.89,11.89,0,0,1-13.04-.024l-8.323-5.514A1.358,1.358,0,0,0,1787.537,2053.864Zm-2.485.5h0Z" transform="translate(-1777.857 -2051.365)" fill="#23252b"/>
                </g>
                <g id="Group_544" data-name="Group 544" transform="translate(0 20.317)">
                  <path id="Path_574" data-name="Path 574" d="M1780.507,2089.473s-.165.744-.241,1.1a9.158,9.158,0,0,0,6.267,10.6,337.371,337.371,0,0,0,47.4,11.064c11.08,1.713,26.828-6.308,30.167-8.058,2.324-1.218,3.783-3.561,3.01-6.022l-1.236-3.936s-20.507,10.647-30.436,8.329c-17.615-4.112-34.155-7.126-51.539-12.109Z" transform="translate(-1778.816 -2088.223)" fill="#fff"/>
                  <path id="Path_575" data-name="Path 575" d="M1836.262,2112.77a22.944,22.944,0,0,1-3.484-.254,338.028,338.028,0,0,1-47.586-11.11,10.4,10.4,0,0,1-7.108-12.049l.244-1.115a1.255,1.255,0,0,1,.581-.8,1.241,1.241,0,0,1,.984-.127l3.387.97c11.671,3.345,22.756,5.755,34.492,8.307,5.52,1.2,11.229,2.442,16.986,3.787,9.355,2.178,29.374-8.12,29.576-8.223a1.249,1.249,0,0,1,1.768.734l1.238,3.936c.9,2.879-.553,5.9-3.622,7.505C1858.572,2107.023,1846.408,2112.77,1836.262,2112.77Zm-55.774-22.687a7.908,7.908,0,0,0,5.466,8.943,335.333,335.333,0,0,0,47.2,11.02c10.227,1.571,25.083-5.672,29.4-7.93,1.514-.794,3.051-2.46,2.4-4.542l-.8-2.535c-4.789,2.346-21.082,9.847-29.969,7.771-5.738-1.339-11.437-2.578-16.948-3.776-11.777-2.562-22.9-4.981-34.649-8.349Z" transform="translate(-1777.857 -2087.263)" fill="#23252b"/>
                </g>
                <path id="Path_576" data-name="Path 576" d="M1849.7,2083.727a1.25,1.25,0,0,1-.7-2.287l11.654-7.823a1.249,1.249,0,1,1,1.394,2.074l-11.654,7.824A1.244,1.244,0,0,1,1849.7,2083.727Z" transform="translate(-1808.497 -2060.931)" fill="#23252b"/>
                <path id="Path_577" data-name="Path 577" d="M1866.23,2089.589a1.249,1.249,0,0,1-.716-2.273l9.37-6.547a1.249,1.249,0,0,1,1.431,2.048l-9.371,6.547A1.238,1.238,0,0,1,1866.23,2089.589Z" transform="translate(-1815.671 -2064.03)" fill="#23252b"/>
              </g>
            </g>
            <path id="Path_578" data-name="Path 578" d="M1595.694,1692.54s136.017-7.855,205.315,17.746a17.944,17.944,0,0,1,11.715,16.228c.714,21.014-6.846,70.782-69.656,158.933l-35.475-1.334,32.932-113.793-151.651-11.444Z" transform="translate(-1534.207 -1682.131)" fill="#23252b"/>
            <g id="Group_551" data-name="Group 551" transform="translate(244.42 202.477)">
              <g id="Group_547" data-name="Group 547">
                <path id="Path_579" data-name="Path 579" d="M1926.355,2049.691l10.792,11.362a23.62,23.62,0,0,1,6.493,16.016l.091,8.591,31.738-8.711c-6.924-7.386-13.913-14.21-18.6-23.182l-9.817-18.781Z" transform="translate(-1925.106 -2033.736)" fill="#fff"/>
                <path id="Path_580" data-name="Path 580" d="M1942.773,2085.952a1.248,1.248,0,0,1-1.25-1.236l-.092-8.591a22.3,22.3,0,0,0-6.148-15.169l-10.792-11.363a1.249,1.249,0,0,1,.182-1.879l20.7-14.7a1.25,1.25,0,0,1,1.831.44l9.817,18.781c4.042,7.732,9.8,13.809,15.89,20.241q1.256,1.323,2.516,2.665a1.248,1.248,0,0,1-.581,2.059l-31.738,8.711A1.223,1.223,0,0,1,1942.773,2085.952Zm-15.478-37.035,9.8,10.318a24.788,24.788,0,0,1,6.836,16.863l.075,6.971,28.171-7.732q-.543-.575-1.085-1.146c-6.217-6.562-12.088-12.762-16.291-20.8l-9.154-17.511Z" transform="translate(-1924.147 -2032.778)" fill="#23252b"/>
              </g>
              <g id="Group_550" data-name="Group 550" transform="translate(10.832 35.501)">
                <g id="Group_548" data-name="Group 548">
                  <path id="Path_581" data-name="Path 581" d="M1946.248,2102.156c-.652,4.617-.666,12.979-.753,20.658a9.52,9.52,0,0,0,8.349,9.5c13.522,1.736,47.29,3.447,73.417,1.076,1.789-.162,4.952-1.465,5.833-5.932,2.957-14.995-23.131-18.67-51.734-29.549a3.089,3.089,0,0,0-3.249.661l-3.084,2.986a10.675,10.675,0,0,1-11.615,2.151l-13.516-3.613A2.638,2.638,0,0,0,1946.248,2102.156Z" transform="translate(-1944.245 -2096.461)" fill="#fff"/>
                  <path id="Path_582" data-name="Path 582" d="M1997.015,2134.836c-17.662,0-34.828-1.023-44.288-2.237a10.765,10.765,0,0,1-9.44-10.758l.025-2.453c.071-6.96.144-14.156.74-18.364a3.887,3.887,0,0,1,5.284-3.072l13.439,3.593a1.144,1.144,0,0,1,.169.057,9.407,9.407,0,0,0,10.256-1.9l3.084-2.987a4.357,4.357,0,0,1,4.562-.93c6.673,2.537,13.087,4.643,19.291,6.678,19.948,6.545,35.7,11.714,33.225,24.281-.935,4.739-4.326,6.7-6.945,6.935C2017.348,2134.5,2007.1,2134.836,1997.015,2134.836Zm-49.113-34.66a1.392,1.392,0,0,0-1.374,1.2c-.573,4.048-.645,11.161-.715,18.04l-.026,2.457a8.264,8.264,0,0,0,7.257,8.248c12.269,1.574,46.32,3.5,73.145,1.071.637-.057,3.859-.567,4.719-4.929,2.051-10.4-12.044-15.023-31.551-21.422-6.231-2.044-12.674-4.157-19.4-6.717a1.849,1.849,0,0,0-1.935.389l-3.085,2.988a11.906,11.906,0,0,1-12.89,2.438l-13.433-3.591a1.237,1.237,0,0,1-.169-.057A1.37,1.37,0,0,0,1947.9,2100.177Zm-2.612,1.023h0Z" transform="translate(-1943.287 -2095.504)" fill="#23252b"/>
                </g>
                <g id="Group_549" data-name="Group 549" transform="translate(0.715 23.628)">
                  <path id="Path_583" data-name="Path 583" d="M1946.778,2139.462s-.016.779-.02,1.155a9.52,9.52,0,0,0,8.348,9.5c13.523,1.736,46.575,3.767,72.7,1.4,1.789-.162,4.952-1.465,5.833-5.931a19.644,19.644,0,0,0,.1-3.837l-1.854.092a541.2,541.2,0,0,1-79.17-1.9Z" transform="translate(-1945.508 -2138.211)" fill="#fff"/>
                  <path id="Path_584" data-name="Path 584" d="M2000.076,2152.888a412.978,412.978,0,0,1-46.087-2.488,10.764,10.764,0,0,1-9.439-10.758l.02-1.165a1.253,1.253,0,0,1,.412-.9,1.22,1.22,0,0,1,.939-.319l5.943.48a541.19,541.19,0,0,0,79.009,1.893l1.851-.092a1.25,1.25,0,0,1,1.31,1.165,20.084,20.084,0,0,1-.124,4.163c-.935,4.739-4.326,6.7-6.945,6.935C2018.317,2152.584,2009.065,2152.888,2000.076,2152.888Zm-53.026-13.032a8.267,8.267,0,0,0,7.257,8.064c11.86,1.522,45.169,3.864,72.43,1.391.637-.057,3.859-.567,4.719-4.929a12.587,12.587,0,0,0,.128-2.284l-.588.029a543.666,543.666,0,0,1-79.354-1.9Z" transform="translate(-1944.55 -2137.252)" fill="#23252b"/>
                </g>
                <path id="Path_585" data-name="Path 585" d="M2019.5,2119.272a1.249,1.249,0,0,1-.884-2.132l10.036-10.04a1.249,1.249,0,0,1,1.767,1.767l-10.036,10.04A1.243,1.243,0,0,1,2019.5,2119.272Z" transform="translate(-1975.822 -2100.378)" fill="#23252b"/>
                <path id="Path_586" data-name="Path 586" d="M2036.916,2122.425a1.25,1.25,0,0,1-.9-2.117l8.019-8.33a1.25,1.25,0,1,1,1.8,1.733l-8.019,8.33A1.246,1.246,0,0,1,2036.916,2122.425Z" transform="translate(-1983.383 -2102.489)" fill="#23252b"/>
              </g>
            </g>
            <path id="Path_587" data-name="Path 587" d="M1516.8,1759.019c19.218,6.1,38.665,5.3,86.725,4.649,13.656-.186,32.977,11.963,39.181,24.129,14.235,27.917,53.226,87.27,103.414,119.85l23.971-12.915-69.359-146.805a50.826,50.826,0,0,0-28.95-27.083l-121.251-44.462s-31.679-9.894-50.111,23.668a84.454,84.454,0,0,0-6.985,16.235C1488.444,1732.867,1500.3,1753.781,1516.8,1759.019Z" transform="translate(-1492.282 -1675.02)" fill="#23252b"/>
            <path id="Path_588" data-name="Path 588" d="M1826.327,1834.085a1.251,1.251,0,0,1-1.14-.734l-29.656-65.391c-5.11-11.5-18.27-23.051-32.009-28.09l-58.067-21.292a1.249,1.249,0,1,1,.861-2.345l58.067,21.292c14.322,5.253,28.068,17.347,33.428,29.412l29.653,65.382a1.25,1.25,0,0,1-1.137,1.766Z" transform="translate(-1584.452 -1692.875)" fill="#fff"/>
            <path id="Path_589" data-name="Path 589" d="M1842.941,2002.383a1.251,1.251,0,0,1-.915-.4c-3.97-4.266-8.7-10.037-14.058-17.152a1.25,1.25,0,1,1,2-1.5,218.99,218.99,0,0,0,13.891,16.952,1.249,1.249,0,0,1-.915,2.1Z" transform="translate(-1637.873 -1808.622)" fill="#fff"/>
          </g>
          <g id="Group_558" data-name="Group 558" transform="translate(0 7.552)">
            <g id="Group_553" data-name="Group 553" transform="translate(258.543)">
              <path id="Path_590" data-name="Path 590" d="M1932.385,1291.093,1944.061,1277a1.417,1.417,0,0,1,2.509.95,50.665,50.665,0,0,1-.749,7.417,2.444,2.444,0,0,0,2.481,2.915c.57-.02,1.109-.03,1.611-.033a8.78,8.78,0,0,0,6.481-2.907c1.951-2.168,4.408-4.835,5.344-5.589,1.65-1.326,3.766-3.364,6.181-3.646l.073-.008a3.074,3.074,0,0,1,2.971,4.632l-3.5,5.862a35.893,35.893,0,0,1-16.906,14.675l-10.52,4.42a4.67,4.67,0,0,0-2.862,4.35l.375,40.892-13.476-13.883s1.275-24.627,3.92-36.986A20.978,20.978,0,0,1,1932.385,1291.093Z" transform="translate(-1922.821 -1274.836)" fill="#fff"/>
              <path id="Path_591" data-name="Path 591" d="M1936.588,1351.227a1.248,1.248,0,0,1-.9-.38l-13.476-13.883a1.257,1.257,0,0,1-.352-.935c.053-1.009,1.31-24.869,3.947-37.183a22.29,22.29,0,0,1,4.655-9.505l11.675-14.093a2.665,2.665,0,0,1,4.719,1.792,50.344,50.344,0,0,1-.77,7.611,1.2,1.2,0,0,0,.264,1.009,1.227,1.227,0,0,0,.948.417c.583-.02,1.133-.031,1.645-.034a7.56,7.56,0,0,0,5.561-2.493,70.94,70.94,0,0,1,5.492-5.727c.224-.181.457-.375.7-.574,1.635-1.359,3.671-3.052,6.118-3.338a4.324,4.324,0,0,1,4.262,6.506l-3.5,5.863a36.9,36.9,0,0,1-17.495,15.186l-10.52,4.42a3.408,3.408,0,0,0-2.1,3.186l.375,40.893a1.251,1.251,0,0,1-1.25,1.261Zm-12.2-15.611,10.92,11.25-.346-37.77a5.9,5.9,0,0,1,3.627-5.514l10.519-4.42A34.406,34.406,0,0,0,1965.428,1285l3.5-5.862a1.824,1.824,0,0,0-1.763-2.748c-1.774.207-3.421,1.576-4.875,2.784-.252.21-.5.413-.73.6a64.593,64.593,0,0,0-5.2,5.451,10.068,10.068,0,0,1-7.4,3.32c-.49,0-1.019.014-1.577.032a3.543,3.543,0,0,1-2.935-1.292,3.679,3.679,0,0,1-.815-3.11,48.717,48.717,0,0,0,.726-7.226.14.14,0,0,0-.1-.156.148.148,0,0,0-.192.05l-11.676,14.093a19.808,19.808,0,0,0-4.135,8.434C1925.875,1310.482,1924.6,1331.934,1924.39,1335.616Zm7.037-45.478h0Z" transform="translate(-1921.862 -1273.88)" fill="#23252b"/>
            </g>
            <g id="Group_554" data-name="Group 554" transform="translate(0 37.044)">
              <path id="Path_592" data-name="Path 592" d="M1742.727,1341.542H1724s-3.944,43.505-53,53.573c-32.555,6.68-47.98.093-52.381-2.415-1.244-.787-9.435-6.245-15.223-9.37-16.271-8.781-45.511-23.1-69.931-8.453-65.79,39.474-77.32,129.858-56.9,192.419,1.37,4.2,4.175,21.639,7.878,24.218,23.273,16.205,61.008-2.937,61.008-2.937,27.535-10.181,46.537-31.764,54.578-42.332a6,6,0,0,0-1.182-8.37c-4.574-3.579-10.44-12.77-11.076-36.349-.436-16.14,5.346-37.045,12.047-56.215,15.454,11.135,40.587,21.553,75.209,11.681C1761,1432.477,1742.727,1341.542,1742.727,1341.542Z" transform="translate(-1466.065 -1340.292)" fill="#fff"/>
              <path id="Path_593" data-name="Path 593" d="M1506.739,1598.371c-8.34,0-16.819-1.761-24.039-6.789-2.874-2-4.862-9.913-6.981-19.274-.548-2.421-1.021-4.511-1.37-5.582-21.094-64.625-8.129-154.536,57.443-193.879,23.321-14,50.284-2.847,71.167,8.425,4.917,2.653,11.446,6.907,14.234,8.723.5.327.869.566,1.064.69,3.836,2.185,19.039,8.9,51.46,2.246,47.6-9.767,51.973-52.036,52.011-52.461a1.25,1.25,0,0,1,1.245-1.138H1741.7a1.25,1.25,0,0,1,1.225,1,127.839,127.839,0,0,1-1.623,49.069c-5.714,23.862-21.974,55-66.966,67.829-34.38,9.808-59.524-.256-74.915-10.906-8.047,23.322-11.789,41.065-11.434,54.2.616,22.887,6.1,31.882,10.6,35.4a7.214,7.214,0,0,1,1.406,10.112c-8.834,11.61-27.729,32.589-55.072,42.722C1543.316,1589.574,1525.377,1598.371,1506.739,1598.371ZM1556,1368.823a43.7,43.7,0,0,0-22.923,6.167c-64.464,38.678-77.148,127.255-56.355,190.959.385,1.181.848,3.223,1.433,5.807,1.278,5.649,3.658,16.165,5.971,17.776,22.385,15.584,59.357-2.84,59.729-3.027a.994.994,0,0,1,.132-.057c26.784-9.9,45.339-30.514,54.016-41.917a4.736,4.736,0,0,0-.957-6.631c-4.916-3.847-10.911-13.441-11.555-37.3-.371-13.741,3.593-32.275,12.117-56.663a1.25,1.25,0,0,1,1.911-.6c14.8,10.667,39.681,21.32,74.134,11.494,35.16-10.026,57.1-32.206,65.2-65.924a126.3,126.3,0,0,0,1.8-47.075h-16.591c-1.082,7.013-8.919,44.328-53.845,53.548-32.369,6.642-48.022.428-53.25-2.553-.249-.156-.626-.4-1.141-.738-2.762-1.8-9.231-6.014-14.056-8.618C1588.166,1376.127,1571.926,1368.823,1556,1368.823Z" transform="translate(-1465.042 -1339.333)" fill="#23252b"/>
            </g>
            <g id="Group_555" data-name="Group 555" transform="translate(65.031 79.936)">
              <path id="Path_594" data-name="Path 594" d="M1638.574,1438.375c1.491,11.664-8.5,45.6,1.883,59.571,34.1,45.878,55.655,56.788,66.336,58.9l-10.539,11.779s-97.954,6.2-111.393-100.35c0,0-12.663-39.215,15.494-48.907,5.861-2.017,13.568-3.192,20.942-.321C1634.07,1424.017,1638.072,1436.69,1638.574,1438.375Z" transform="translate(-1580.846 -1416.078)" fill="#fff"/>
              <path id="Path_595" data-name="Path 595" d="M1692.577,1568.97a122.974,122.974,0,0,1-48.394-10.388c-24.151-10.861-54.409-35.468-61.45-91-.743-2.431-11.884-40.648,16.314-50.353,5.467-1.884,13.69-3.463,21.8-.3,12.948,5.041,17.284,17.66,18.021,20.138a1.224,1.224,0,0,1,.042.2c.51,3.989-.245,10.265-1.12,17.534-1.74,14.466-3.908,32.47,2.766,41.449,34.46,46.367,55.876,56.5,65.575,58.416a1.25,1.25,0,0,1,.689,2.06l-10.539,11.779a1.249,1.249,0,0,1-.852.414C1695.384,1568.911,1694.37,1568.97,1692.577,1568.97Zm-81.643-151.352a34.484,34.484,0,0,0-11.075,1.969c-26.689,9.187-14.833,46.962-14.711,47.342a1.271,1.271,0,0,1,.052.228c6.863,54.413,36.372,78.49,59.918,89.106a118.971,118.971,0,0,0,49.654,10.175l8.783-9.817c-12.577-3.371-33.6-16.642-65-58.888-7.269-9.779-5.035-28.332-3.241-43.24.847-7.037,1.579-13.126,1.134-16.817-.759-2.5-4.8-13.868-16.5-18.425A24.7,24.7,0,0,0,1610.935,1417.618Z" transform="translate(-1579.945 -1415.119)" fill="#23252b"/>
            </g>
            <g id="Group_556" data-name="Group 556" transform="translate(23.11 44.832)">
              <path id="Path_596" data-name="Path 596" d="M1536.394,1393.153a19.525,19.525,0,0,1-15.29.3,17.085,17.085,0,0,1-7.172-5.344c-10.907-14.7-12.2-44.242,48.129-28.156,19.69,5.251,46.936,21.17,46.936,21.17l15.706,9.919C1593.693,1381.851,1564.063,1381.322,1536.394,1393.153Z" transform="translate(-1506.845 -1354.05)" fill="#fff"/>
              <path id="Path_597" data-name="Path 597" d="M1527.23,1395.157a19.4,19.4,0,0,1-7.583-1.5,18.186,18.186,0,0,1-7.689-5.752c-5.489-7.4-8.662-18.347-3.377-26.13,4.739-6.978,17.75-13.332,52.832-3.978,19.624,5.234,46.969,21.138,47.244,21.3l15.742,9.941a1.25,1.25,0,0,1-1.023,2.255c-32.842-9.737-61.452-9.064-87.462,2.06A22.175,22.175,0,0,1,1527.23,1395.157Zm4.233-39.53c-10.272,0-17.405,2.527-20.814,7.549-4.572,6.733-1.487,16.765,3.315,23.237a15.744,15.744,0,0,0,6.659,4.94,18.368,18.368,0,0,0,14.309-.3c24.4-10.43,50.989-11.876,81.059-4.371l-8.632-5.45c-.234-.137-27.292-15.872-46.589-21.02C1549.294,1357.149,1539.433,1355.627,1531.464,1355.627Z" transform="translate(-1505.875 -1353.095)" fill="#23252b"/>
            </g>
            <g id="Group_557" data-name="Group 557" transform="translate(174.711 215.389)">
              <path id="Path_598" data-name="Path 598" d="M1775.947,1672.435c.872-.519,8.9-12.955,17.71-15.545s27.985,16.754,27.985,16.754Z" transform="translate(-1774.697 -1655.406)" fill="#fff"/>
              <path id="Path_599" data-name="Path 599" d="M1820.683,1673.939h-.033l-45.694-1.21a1.25,1.25,0,0,1-.7-2.259c.177-.177.68-.816,1.167-1.433,2.862-3.632,9.562-12.136,16.928-14.3,9.267-2.734,27.208,15.039,29.224,17.073a1.25,1.25,0,0,1-.887,2.13Zm-43.076-3.64,39.9,1.057c-6.4-5.991-18.63-15.932-24.458-14.222C1786.626,1659.022,1780.434,1666.714,1777.607,1670.3Z" transform="translate(-1773.739 -1654.451)" fill="#23252b"/>
            </g>
            <path id="Path_600" data-name="Path 600" d="M1701.84,1482.1a1.32,1.32,0,0,1-.214-.018,1.25,1.25,0,0,1-1.019-1.444l6.2-35.958a1.249,1.249,0,1,1,2.462.424l-6.2,35.958A1.25,1.25,0,0,1,1701.84,1482.1Z" transform="translate(-1567.278 -1347.563)" fill="#23252b"/>
          </g>
        </g>
        <g id="Group_563" data-name="Group 563" transform="translate(138.202 149.101)">
          <g id="Group_562" data-name="Group 562">
            <g id="Group_560" data-name="Group 560" transform="translate(0 97.668)">
              <path id="Path_601" data-name="Path 601" d="M1876.164,1708.108h-155.38a9.346,9.346,0,0,1-9.346-9.346h174.073A9.346,9.346,0,0,1,1876.164,1708.108Z" transform="translate(-1710.189 -1697.512)" fill="#fff"/>
              <path id="Path_602" data-name="Path 602" d="M1875.206,1708.4h-155.38a10.607,10.607,0,0,1-10.595-10.595,1.249,1.249,0,0,1,1.25-1.25h174.072a1.249,1.249,0,0,1,1.25,1.25A10.608,10.608,0,0,1,1875.206,1708.4Zm-163.379-9.345a8.108,8.108,0,0,0,8,6.846h155.38a8.11,8.11,0,0,0,8-6.846Z" transform="translate(-1709.231 -1696.554)" fill="#23252b"/>
            </g>
            <g id="Group_561" data-name="Group 561" transform="translate(74.47)">
              <path id="Path_603" data-name="Path 603" d="M1942.625,1624.028h-99.6l31.646-93.154a10.409,10.409,0,0,1,8.74-4.682h84.2a5.226,5.226,0,0,1,5.034,6.979c-.5,1.3-1.031,2.588-1.465,3.911Z" transform="translate(-1841.771 -1524.942)" fill="#fff"/>
              <path id="Path_604" data-name="Path 604" d="M1941.666,1624.319h-99.6a1.251,1.251,0,0,1-1.184-1.651l31.648-93.155a1.306,1.306,0,0,1,.136-.279,11.6,11.6,0,0,1,9.787-5.25h84.2a6.536,6.536,0,0,1,5.469,2.84,6.321,6.321,0,0,1,.731,5.834l-.435,1.12c-.366.936-.711,1.821-1.01,2.734l-28.551,86.947A1.249,1.249,0,0,1,1941.666,1624.319Zm-97.861-2.5h96.956l28.269-86.085c.321-.98.7-1.939,1.058-2.867l.426-1.1a3.824,3.824,0,0,0-.453-3.527,4.073,4.073,0,0,0-3.412-1.758h-84.2a9.114,9.114,0,0,0-7.608,3.987Z" transform="translate(-1840.811 -1523.984)" fill="#23252b"/>
            </g>
            <path id="Path_605" data-name="Path 605" d="M1953.421,1606.183c-1.186,3.939.628,7.969,4.052,9s7.162-1.322,8.348-5.26-.627-7.969-4.052-9S1954.608,1602.245,1953.421,1606.183Z" transform="translate(-1815.061 -1557.273)" fill="#23252b"/>
          </g>
        </g>
      </g>
    </g>
    <g id="Group_240" data-name="Group 240" transform="translate(146.447 2720.49)">
      <path id="Path_291" data-name="Path 291" d="M373.43,1395.583a5.363,5.363,0,1,1,5.363-5.363A5.369,5.369,0,0,1,373.43,1395.583Zm0-9.439a4.076,4.076,0,1,0,4.076,4.076A4.081,4.081,0,0,0,373.43,1386.143Z" transform="translate(-368.066 -888.742)" fill="#23252b"/>
      <g id="Group_237" data-name="Group 237" transform="translate(37.103 452.772)">
        <path id="Path_292" data-name="Path 292" d="M404.546,1307.358a.643.643,0,0,1-.644-.644v-4.991a.644.644,0,0,1,1.287,0v4.991A.643.643,0,0,1,404.546,1307.358Z" transform="translate(-395.593 -1301.08)" fill="#23252b"/>
        <path id="Path_293" data-name="Path 293" d="M404.546,1347.375a.644.644,0,0,1-.644-.644v-4.991a.644.644,0,0,1,1.287,0v4.991A.644.644,0,0,1,404.546,1347.375Z" transform="translate(-395.593 -1329.469)" fill="#23252b"/>
        <path id="Path_294" data-name="Path 294" d="M380.938,1330.964h-4.991a.644.644,0,1,1,0-1.287h4.991a.644.644,0,1,1,0,1.287Z" transform="translate(-375.304 -1321.368)" fill="#23252b"/>
        <path id="Path_295" data-name="Path 295" d="M420.955,1330.964h-4.991a.644.644,0,1,1,0-1.287h4.991a.644.644,0,1,1,0,1.287Z" transform="translate(-403.694 -1321.368)" fill="#23252b"/>
      </g>
      <g id="Group_238" data-name="Group 238" transform="translate(442.747 89.365)">
        <path id="Path_296" data-name="Path 296" d="M1908.72,677.479a.645.645,0,0,1-.613-.447l-.934-2.906a.644.644,0,0,1,1.226-.394l.934,2.905a.645.645,0,0,1-.613.841Z" transform="translate(-1902.708 -673.286)" fill="#fff" stroke="#23252b" stroke-width="1"/>
        <path id="Path_297" data-name="Path 297" d="M1919.968,712.477a.645.645,0,0,1-.613-.447l-.933-2.906a.644.644,0,1,1,1.225-.394l.933,2.906a.644.644,0,0,1-.613.841Z" transform="translate(-1910.688 -698.116)" fill="#fff" stroke="#23252b" stroke-width="1"/>
        <path id="Path_298" data-name="Path 298" d="M1892.523,702.034a.644.644,0,0,1-.2-1.256l2.905-.936a.644.644,0,1,1,.395,1.225l-2.9.936A.643.643,0,0,1,1892.523,702.034Z" transform="translate(-1891.88 -692.104)" fill="#fff" stroke="#23252b" stroke-width="1"/>
        <path id="Path_299" data-name="Path 299" d="M1927.514,690.76a.644.644,0,0,1-.2-1.256l2.9-.936a.644.644,0,1,1,.395,1.225l-2.9.936A.638.638,0,0,1,1927.514,690.76Z" transform="translate(-1916.704 -684.106)" fill="#fff" stroke="#23252b" stroke-width="1"/>
      </g>
      <g id="Group_239" data-name="Group 239" transform="translate(246.948 0)">
        <path id="Path_300" data-name="Path 300" d="M1773.746,568.652a.639.639,0,0,1-.415-.152c-2.938-2.486-5.963-4.938-8.993-7.289a.644.644,0,0,1,.789-1.017c3.043,2.362,6.083,4.825,9.034,7.322a.643.643,0,0,1-.416,1.135Z" transform="translate(-1605.42 -503.592)" fill="#23252b"/>
        <path id="Path_301" data-name="Path 301" d="M1417.687,432.4a.64.64,0,0,1-.394-.135c-42.22-32.766-92.562-51.473-141.753-52.674a.644.644,0,0,1,.016-1.287h.016a227.963,227.963,0,0,1,74.141,14.586,259.335,259.335,0,0,1,68.369,38.358.644.644,0,0,1-.4,1.152Z" transform="translate(-1258.374 -374.648)" fill="#23252b"/>
        <path id="Path_302" data-name="Path 302" d="M1440.825,473.815a.64.64,0,0,1-.358-.109c-32.068-21.525-68.027-34.648-103.992-37.952a.644.644,0,1,1,.118-1.282c36.178,3.323,72.346,16.521,104.592,38.165a.644.644,0,0,1-.359,1.178Z" transform="translate(-1301.635 -414.492)" fill="#23252b"/>
        <path id="Path_303" data-name="Path 303" d="M1817.114,608.959a5.015,5.015,0,1,1,2.18-.5A5.019,5.019,0,0,1,1817.114,608.959Zm0-8.729a3.72,3.72,0,1,0,1.216.206A3.726,3.726,0,0,0,1817.113,600.23Z" transform="translate(-1639.483 -531.178)" fill="#23252b"/>
        <path id="Path_304" data-name="Path 304" d="M1227.267,375.076a.639.639,0,0,1-.137-.015l-8.631-1.883a.643.643,0,0,1-.366-1.03c2.555-3.2,5.4-6.2,5.431-6.232a.643.643,0,0,1,1.063.2l3.236,8.073a.643.643,0,0,1-.6.883Zm-7.473-2.933,6.424,1.4-2.407-6C1222.94,368.484,1221.362,370.232,1219.794,372.143Z" transform="translate(-1217.993 -365.715)" fill="#23252b"/>
      </g>
    </g>
  </g>
</svg>
