<svg width="131" height="35" viewBox="0 0 131 35" fill="none" xmlns="http://www.w3.org/2000/svg">
<path fill-rule="evenodd" clip-rule="evenodd" d="M34.9249 32.0062H37.8245V18.8027H34.9249V32.0062Z" fill="#4080FF"/>
<path fill-rule="evenodd" clip-rule="evenodd" d="M43.1361 21.6829H39.5159V18.8516H49.5515V21.6829H45.9313V32.0282H43.1361V21.6829Z" fill="#4080FF"/>
<path fill-rule="evenodd" clip-rule="evenodd" d="M59.3315 22.4691C59.0572 22.1296 58.7198 21.8705 58.3192 21.6886C57.9187 21.5067 57.4561 21.4163 56.9304 21.4163C56.4046 21.4163 55.9181 21.52 55.4696 21.725C55.0223 21.9311 54.6337 22.2177 54.305 22.587C53.9763 22.9563 53.7194 23.395 53.5344 23.9032C53.3493 24.4114 53.2568 24.9614 53.2568 25.5545C53.2568 26.1597 53.3493 26.713 53.5344 27.2157C53.7194 27.7172 53.973 28.1527 54.2963 28.5208C54.6185 28.8901 54.9983 29.1778 55.4337 29.3829C55.8702 29.589 56.3382 29.6926 56.84 29.6926C57.4136 29.6926 57.922 29.5714 58.3639 29.3299C58.8058 29.0874 59.1704 28.7479 59.4567 28.3136L61.786 30.0729C61.2494 30.8357 60.568 31.399 59.743 31.7617C58.919 32.1243 58.0711 32.3051 57.1992 32.3051C56.2065 32.3051 55.2933 32.1475 54.4574 31.8333C53.6203 31.5192 52.8976 31.0683 52.2892 30.4819C51.6796 29.8943 51.205 29.1844 50.8644 28.3489C50.5237 27.5144 50.3528 26.5818 50.3528 25.5545C50.3528 24.526 50.5237 23.5945 50.8644 22.7601C51.205 21.9245 51.6796 21.2135 52.2892 20.6271C52.8976 20.0406 53.6203 19.5898 54.4574 19.2756C55.2933 18.9604 56.2065 18.8027 57.1992 18.8027C57.5573 18.8027 57.9307 18.8369 58.3192 18.903C58.7067 18.9692 59.0899 19.075 59.4665 19.2205C59.842 19.366 60.2034 19.5589 60.5506 19.8014C60.8956 20.044 61.2069 20.3394 61.4823 20.691L59.3315 22.4691Z" fill="#4080FF"/>
<path fill-rule="evenodd" clip-rule="evenodd" d="M78.9189 31.1185C78.0949 31.555 77.234 31.8692 76.3382 32.0621C75.4424 32.255 74.528 32.352 73.5963 32.352C72.6047 32.352 71.6904 32.1955 70.8545 31.8802C70.0185 31.566 69.2958 31.1152 68.6863 30.5288C68.0778 29.9423 67.6022 29.2313 67.2615 28.3958C66.9219 27.5613 66.751 26.6298 66.751 25.6014C66.751 24.574 66.9219 23.6414 67.2615 22.807C67.6022 21.9714 68.0778 21.2615 68.6863 20.674C69.2958 20.0875 70.0185 19.6367 70.8545 19.3225C71.6904 19.0083 72.6047 18.8496 73.5963 18.8496C74.6119 18.8496 75.5468 18.9742 76.4013 19.2222C77.2546 19.4713 78.0046 19.8968 78.6501 20.502L76.6789 22.6802C76.2957 22.28 75.8658 21.978 75.3879 21.7719C74.9101 21.5668 74.3136 21.4632 73.5963 21.4632C72.9988 21.4632 72.4578 21.5668 71.9745 21.7719C71.4912 21.978 71.0754 22.2657 70.7293 22.635C70.3832 23.0043 70.1176 23.4419 69.9315 23.9501C69.7464 24.4582 69.6539 25.0083 69.6539 25.6014C69.6539 26.2065 69.7464 26.7599 69.9315 27.2626C70.1176 27.7641 70.3832 28.2006 70.7293 28.5688C71.0754 28.937 71.4912 29.2247 71.9745 29.4308C72.4578 29.6359 72.9988 29.7395 73.5963 29.7395C74.2059 29.7395 74.7316 29.67 75.1735 29.5311C75.6154 29.3923 75.9681 29.2501 76.2304 29.1045V27.0167H73.9544V24.4031H78.9189V31.1185Z" fill="#4080FF"/>
<path fill-rule="evenodd" clip-rule="evenodd" d="M84.2547 24.407H85.9037C86.154 24.407 86.4196 24.3971 86.7005 24.3795C86.9813 24.3607 87.2349 24.3067 87.4624 24.2163C87.6888 24.1248 87.8771 23.9826 88.0273 23.7886C88.1764 23.5968 88.2504 23.3246 88.2504 22.9729C88.2504 22.6455 88.184 22.3865 88.0534 22.1925C87.9217 21.9985 87.7552 21.8507 87.5516 21.7482C87.3492 21.6446 87.1152 21.5763 86.8528 21.5388C86.5905 21.5024 86.3326 21.4848 86.0822 21.4848H84.2547V24.407ZM81.4584 18.8496H86.3685C87.014 18.8496 87.6268 18.9124 88.2058 19.0403C88.7849 19.1671 89.2932 19.3787 89.7286 19.6753C90.1651 19.9718 90.5112 20.3708 90.7681 20.8735C91.026 21.375 91.1534 22.2412 91.1534 22.9919C91.1534 23.8991 90.9204 24.4296 90.4546 25.0645C89.9898 25.7006 89.3084 26.343 88.4115 26.5116L91.6377 31.9384H88.2864L85.6349 26.8026H84.2547V31.9384H81.4584V18.8496Z" fill="#4080FF"/>
<path fill-rule="evenodd" clip-rule="evenodd" d="M95.2112 25.6014C95.2112 26.2066 95.3037 26.7599 95.4898 27.2626C95.6749 27.7642 95.9405 28.1996 96.2866 28.5678C96.6338 28.937 97.0474 29.2247 97.5329 29.4309C98.0162 29.6359 98.556 29.7395 99.1536 29.7395C99.7512 29.7395 100.292 29.6359 100.775 29.4309C101.26 29.2247 101.674 28.937 102.022 28.5678C102.368 28.1996 102.633 27.7642 102.818 27.2626C103.004 26.7599 103.096 26.2066 103.096 25.6014C103.096 25.0083 103.004 24.4583 102.818 23.9501C102.633 23.4419 102.368 23.0043 102.022 22.635C101.674 22.2658 101.26 21.978 100.775 21.7719C100.292 21.5669 99.7512 21.4633 99.1536 21.4633C98.556 21.4633 98.0162 21.5669 97.5329 21.7719C97.0474 21.978 96.6338 22.2658 96.2866 22.635C95.9405 23.0043 95.6749 23.4419 95.4898 23.9501C95.3037 24.4583 95.2112 25.0083 95.2112 25.6014ZM92.3083 25.6014C92.3083 24.5729 92.4781 23.6414 92.8199 22.807C93.1595 21.9714 93.6351 21.2604 94.2436 20.674C94.8531 20.0875 95.5759 19.6367 96.4129 19.3225C97.2477 19.0083 98.162 18.8496 99.1536 18.8496C100.145 18.8496 101.06 19.0083 101.897 19.3225C102.731 19.6367 103.454 20.0875 104.065 20.674C104.673 21.2604 105.149 21.9714 105.488 22.807C105.829 23.6414 105.999 24.5729 105.999 25.6014C105.999 26.6298 105.829 27.5613 105.488 28.3958C105.149 29.2313 104.673 29.9423 104.065 30.5288C103.454 31.1152 102.731 31.566 101.897 31.8802C101.06 32.1944 100.145 32.352 99.1536 32.352C98.162 32.352 97.2477 32.1944 96.4129 31.8802C95.5759 31.566 94.8531 31.1152 94.2436 30.5288C93.6351 29.9423 93.1595 29.2313 92.8199 28.3958C92.4781 27.5613 92.3083 26.6298 92.3083 25.6014Z" fill="#4080FF"/>
<path fill-rule="evenodd" clip-rule="evenodd" d="M118.438 27.072C118.438 27.8337 118.324 28.5359 118.097 29.1763C117.871 29.8179 117.532 30.3745 117.085 30.8463C116.636 31.3192 116.078 31.6874 115.408 31.9542C114.74 32.2198 113.969 32.3521 113.098 32.3521C112.213 32.3521 111.436 32.2198 110.767 31.9542C110.098 31.6874 109.539 31.3192 109.092 30.8463C108.644 30.3745 108.306 29.8179 108.079 29.1763C107.852 28.5359 107.739 27.8337 107.739 27.072V18.8496H110.534V26.9617C110.534 27.3619 110.597 27.7312 110.723 28.0696C110.848 28.4091 111.024 28.7023 111.251 28.9492C111.478 29.1984 111.749 29.3913 112.066 29.5302C112.384 29.6691 112.726 29.7396 113.098 29.7396C113.468 29.7396 113.807 29.6691 114.119 29.5302C114.429 29.3913 114.698 29.1984 114.924 28.9492C115.152 28.7023 115.329 28.4091 115.454 28.0696C115.579 27.7312 115.642 27.3619 115.642 26.9617V18.8496H118.438V27.072Z" fill="#4080FF"/>
<path fill-rule="evenodd" clip-rule="evenodd" d="M123.795 24.6224H125.659C125.909 24.6224 126.152 24.5981 126.385 24.5496C126.618 24.5011 126.827 24.4195 127.012 24.3049C127.197 24.1891 127.347 24.0326 127.459 23.832C127.573 23.6336 127.63 23.3822 127.63 23.0802C127.63 22.7528 127.555 22.4894 127.406 22.2898C127.256 22.0903 127.066 21.9349 126.832 21.8269C126.599 21.7177 126.34 21.6494 126.053 21.6174C125.766 21.5888 125.492 21.5722 125.229 21.5722H123.795V24.6224ZM121 18.8496H125.713C126.369 18.8496 126.991 18.9091 127.576 19.0315C128.162 19.1516 128.671 19.36 129.108 19.6565C129.544 19.953 129.891 20.3532 130.147 20.8547C130.404 21.3563 130.533 21.989 130.533 22.7518C130.533 23.5014 130.413 24.4588 130.175 24.9659C129.936 25.474 129.608 25.8808 129.189 26.1817C128.771 26.4849 128.275 26.6998 127.702 26.8266C127.129 26.9534 126.507 27.0173 125.838 27.0173H123.795V32.0263H121V18.8496Z" fill="#4080FF"/>
<path d="M4.2581 0.158205H24.7926C26.5038 0.158205 28.2044 1.8583 28.2044 3.55839V30.7599C28.2044 32.46 26.5038 34.1582 24.7926 34.1582H4.25811C2.5469 34.1582 0.835698 32.46 0.835698 30.7599L0.835693 3.55839C0.835693 1.8583 2.6182 0.158205 4.2581 0.158205ZM5.96931 3.55839C4.97331 3.55839 4.25811 4.26248 4.25811 5.25848V29.0598C4.25811 30.0558 4.97331 30.7599 5.96931 30.7599H23.0814C24.0774 30.7599 24.7926 30.0558 24.7926 29.0598V5.25847C24.7926 4.26247 24.0774 3.55839 23.0814 3.55839H5.96931Z" fill="#4080FF"/>
<path d="M20.5283 29.1201C21.9535 29.1201 23.1089 27.9647 23.1089 26.5395C23.1089 25.1143 21.9535 23.959 20.5283 23.959C19.1031 23.959 17.9478 25.1143 17.9478 26.5395C17.9478 27.9647 19.1031 29.1201 20.5283 29.1201Z" fill="#4080FF"/>
<path d="M14.548 22.2545C17.3886 22.2509 19.6885 19.9711 19.685 17.1625C19.6815 14.3538 17.3758 12.0798 14.5352 12.0834C11.6945 12.0869 9.39459 14.3667 9.39813 17.1754C9.40167 19.9841 11.7073 22.2581 14.548 22.2545Z" fill="#FFCE59"/>
<path d="M27.3594 15.459C31.6122 15.459 35.0598 12.0338 35.0598 7.80862C35.0598 3.58341 31.6122 0.158203 27.3594 0.158203C23.1065 0.158203 19.6589 3.58341 19.6589 7.80862C19.6589 12.0338 23.1065 15.459 27.3594 15.459Z" fill="#F06283"/>
</svg>
